<svg xmlns="http://www.w3.org/2000/svg" viewBox="0 0 269.66 506.41"><defs><style>.cls-1{fill:#070018;}.cls-2{fill:#8bc53f;stroke:#ec1c24;stroke-miterlimit:10;stroke-width:0.1px;}</style></defs><title>background_1</title><g id="Layer_2" data-name="Layer 2"><g id="Layer_1-2" data-name="Layer 1"><rect class="cls-1" width="269.66" height="506.41"/><line class="cls-2" x1="12.36" x2="12.36" y2="506.41"/><line class="cls-2" x1="23.36" x2="23.36" y2="506.41"/><line class="cls-2" x1="33.36" x2="33.36" y2="506.41"/><line class="cls-2" x1="44.36" x2="44.36" y2="506.41"/><line class="cls-2" x1="55.36" x2="55.36" y2="506.41"/><line class="cls-2" x1="65.36" x2="65.36" y2="506.41"/><line class="cls-2" x1="76.36" x2="76.36" y2="506.41"/><line class="cls-2" x1="87.18" x2="87.18" y2="506.41"/><line class="cls-2" x1="97.18" x2="97.18" y2="506.41"/><line class="cls-2" x1="108.18" x2="108.18" y2="506.41"/><line class="cls-2" x1="119.18" x2="119.18" y2="506.41"/><line class="cls-2" x1="129.18" x2="129.18" y2="506.41"/><line class="cls-2" x1="140.18" x2="140.18" y2="506.41"/><line class="cls-2" x1="151.18" y1="0.33" x2="151.18" y2="506.41"/><line class="cls-2" x1="161.18" y1="0.33" x2="161.18" y2="506.41"/><line class="cls-2" x1="172.18" y1="0.33" x2="172.18" y2="506.41"/><line class="cls-2" x1="183.18" y1="0.33" x2="183.18" y2="506.41"/><line class="cls-2" x1="193.18" y1="0.33" x2="193.18" y2="506.41"/><line class="cls-2" x1="204.18" y1="0.33" x2="204.18" y2="506.41"/><line class="cls-2" x1="215" y1="0.33" x2="215" y2="506.41"/><line class="cls-2" x1="225" y1="0.33" x2="225" y2="506.41"/><line class="cls-2" x1="236" y1="0.33" x2="236" y2="506.41"/><line class="cls-2" x1="247" y1="0.33" x2="247" y2="506.41"/><line class="cls-2" x1="257" x2="257" y2="506.41"/></g></g></svg>